<svg xmlns="http://www.w3.org/2000/svg" version="1.1" xmlns:xlink="http://www.w3.org/1999/xlink" xmlns:svgjs="http://svgjs.dev/svgjs" width="2000" height="2250" viewBox="0 0 2000 2250"><g transform="matrix(1,0,0,1,0,0)"><svg viewBox="0 0 320 360" data-background-color="#f9f9f9" preserveAspectRatio="xMidYMid meet" height="2250" width="2000" xmlns="http://www.w3.org/2000/svg" xmlns:xlink="http://www.w3.org/1999/xlink"><g id="tight-bounds" transform="matrix(1,0,0,1,0,0)"><svg viewBox="0 0 320 360" height="360" width="320"><rect width="320" height="360" fill="url(#0029977a-d045-4f9b-9556-a2f3b4390586)" mask="url(#ecc59328-9e4b-4c50-9d51-d536de737f50)" data-fill-palette-color="tertiary"></rect><g><svg></svg></g><g><svg viewBox="0 0 320 360" height="360" width="320"><g><path d="M297.491 100.645c-12.426-21.51-112.674-79.355-137.491-79.355-24.817 0-125.028 57.845-137.491 79.355-11.591 20.02-11.591 138.726 0 158.746 12.463 21.474 112.674 79.319 137.491 79.319 24.817 0 125.064-57.845 137.491-79.355 11.591-20.02 11.591-138.69 0-158.71zM309.481 93.705c-14.461-24.998-119.469-86.295-149.481-86.295-30.012 0-135.02 61.297-149.481 86.295-14.025 24.199-14.025 148.391 0 172.59 14.461 24.998 119.469 86.295 149.481 86.295 30.012 0 135.02-61.297 149.481-86.259 14.025-24.235 14.025-148.427 0-172.626zM300.906 261.353c-12.753 22.055-115.472 81.317-140.906 81.318-25.434 0-128.153-59.298-140.906-81.354-11.881-20.529-11.881-142.178 0-162.707 12.753-22.019 115.472-81.281 140.906-81.281 25.434 0 128.153 59.298 140.906 81.318 11.881 20.529 11.881 142.178 0 162.706z" fill="url(#0029977a-d045-4f9b-9556-a2f3b4390586)" fill-rule="nonzero" stroke="none" stroke-width="1" stroke-linecap="butt" stroke-linejoin="miter" stroke-miterlimit="10" stroke-dasharray="" stroke-dashoffset="0" font-family="none" font-weight="none" font-size="none" text-anchor="none" style="mix-blend-mode: normal" data-fill-palette-color="tertiary"></path></g><g transform="matrix(1,0,0,1,48.000000000000014,90.02147815230961)"><svg viewBox="0 0 223.99999999999997 179.95704369538078" height="179.95704369538078" width="223.99999999999997"><g><svg viewBox="0 0 223.99999999999997 179.95704369538078" height="179.95704369538078" width="223.99999999999997"><g><svg viewBox="0 0 223.99999999999997 179.95704369538078" height="179.95704369538078" width="223.99999999999997"><g id="textblocktransform"><svg viewBox="0 0 223.99999999999997 179.95704369538078" height="179.95704369538078" width="223.99999999999997" id="textblock"><g><svg viewBox="0 0 223.99999999999997 179.95704369538078" height="179.95704369538078" width="223.99999999999997"><path d="M223.476 38.597C222.422 19.918 219.421 14.725 219.421 14.725 210.207-4.515 198.707-0.368 188.377 2.397 170.137 2.509 151.972 6.618 133.775 8.822 95.58 9.158 57.059 3.629 19.053 17.265 15.483 21.45-3.704 18.087 0.635 40.988 1.772 50.515 5.921 61.087 5.795 69.829 6.364 71.361 7.154 67.849 7.49 70.054 8.67 75.994 10.597 73.192 12.177 76.703 9.976 86.081 11.555 93.889 13.061 102.07 10.408 104.2 7.006 103.191 5.479 110.252 5.321 115.37 4.468 114.399 3.531 114.175 2.846 114.025 1.467 114.585 1.699 116.192 2.488 121.684-0.902 124.859 1.225 130.239-0.239 136.067 2.236 141.11 1.899 147.424 1.857 148.694 2.088 149.778 2.457 150.076 4.089 151.683 1.709 154.821 1.962 158.221 18.706 181.458 36.871 165.394 54.026 176.078 58.48 168.607 55.131 178.731 56.911 177.162 58.301 175.331 59.312 182.915 60.881 178.619 61.123 177.386 60.755 174.472 61.618 175.032 62.071 175.331 62.471 175.256 62.535 173.538 62.629 170.96 61.797 172.567 61.576 171.222 63.967 164.422 63.377 180.599 65.62 179.926 65.515 177.946 64.862 175.107 66.199 175.481 67.526 172.641 67.568 170.288 68.748 176.676 68.79 178.058 69 179.03 69.337 179.702 73.023 172.753 76.688 182.168 80.553 179.03 82.922 175.593 85.197 180.898 87.598 179.59 88.44 178.544 89.293 176.676 90.104 179.814 100.034 180.487 110.618 177.685 120.032 179.926 145.19 175.742 172.075 181.645 198.602 176.116 204.857 173.986 211.355 170.96 217.452 168.532 217.452 168.532 222.391 161.882 222.391 131.995S223.444 105.843 223.602 82.046C223.76 58.248 224.497 57.277 223.444 38.597Z" opacity="1" fill="url(#0029977a-d045-4f9b-9556-a2f3b4390586)" data-fill-palette-color="tertiary"></path><g transform="matrix(1,0,0,1,31.584000000000003,19.1)"><svg width="160.83199999999997" viewBox="2.8 -35.1 40.050000000000004 35.300000000000004" height="141.75704369538076" data-palette-color="#f9f9f9"><path d="M23.65-6.45L23.65-6.45 23.65-2.25Q23.65-0.1 20.73 0.05 17.8 0.2 14.38 0.2 10.95 0.2 6.55-0.05L6.55-0.05Q5.1-0.15 4.23-1.05 3.35-1.95 3.2-3.1L3.2-3.1Q2.8-7.5 2.8-16.93 2.8-26.35 3.1-30.65 3.4-34.95 7.45-35L7.45-35Q12.1-35.1 17.4-35.1 22.7-35.1 28.88-34.95 35.05-34.8 38.95-30.3 42.85-25.8 42.85-20.4 42.85-15 39.4-11.5 35.95-8 29.3-8L29.3-8 25.4-8Q24.75-8 24.2-7.55 23.65-7.1 23.65-6.45ZM23.6-24.55L23.6-24.55 23.7-15.3Q23.7-14.35 24.75-14.35L24.75-14.35Q27.85-14.35 29.63-16.07 31.4-17.8 31.4-20.15 31.4-22.5 29.73-24.2 28.05-25.9 24.8-25.9L24.8-25.9Q23.6-25.9 23.6-24.55Z" opacity="1" transform="matrix(1,0,0,1,0,0)" fill="#f9f9f9" class="wordmark-text-0" data-fill-palette-color="quaternary" id="text-0"></path></svg></g></svg></g></svg></g></svg></g><g></g></svg></g></svg></g></svg></g><defs></defs><mask id="ecc59328-9e4b-4c50-9d51-d536de737f50"><g id="SvgjsG1030"><svg viewBox="0 0 320 360" height="360" width="320"><g><svg></svg></g><g><svg viewBox="0 0 320 360" height="360" width="320"><g><path d="M297.491 100.645c-12.426-21.51-112.674-79.355-137.491-79.355-24.817 0-125.028 57.845-137.491 79.355-11.591 20.02-11.591 138.726 0 158.746 12.463 21.474 112.674 79.319 137.491 79.319 24.817 0 125.064-57.845 137.491-79.355 11.591-20.02 11.591-138.69 0-158.71zM309.481 93.705c-14.461-24.998-119.469-86.295-149.481-86.295-30.012 0-135.02 61.297-149.481 86.295-14.025 24.199-14.025 148.391 0 172.59 14.461 24.998 119.469 86.295 149.481 86.295 30.012 0 135.02-61.297 149.481-86.259 14.025-24.235 14.025-148.427 0-172.626zM300.906 261.353c-12.753 22.055-115.472 81.317-140.906 81.318-25.434 0-128.153-59.298-140.906-81.354-11.881-20.529-11.881-142.178 0-162.707 12.753-22.019 115.472-81.281 140.906-81.281 25.434 0 128.153 59.298 140.906 81.318 11.881 20.529 11.881 142.178 0 162.706z" fill="white" fill-rule="nonzero" stroke="none" stroke-width="1" stroke-linecap="butt" stroke-linejoin="miter" stroke-miterlimit="10" stroke-dasharray="" stroke-dashoffset="0" font-family="none" font-weight="none" font-size="none" text-anchor="none" style="mix-blend-mode: normal"></path></g><g transform="matrix(1,0,0,1,48.000000000000014,90.02147815230961)"><svg viewBox="0 0 223.99999999999997 179.95704369538078" height="179.95704369538078" width="223.99999999999997"><g><svg viewBox="0 0 223.99999999999997 179.95704369538078" height="179.95704369538078" width="223.99999999999997"><g><svg viewBox="0 0 223.99999999999997 179.95704369538078" height="179.95704369538078" width="223.99999999999997"><g id="SvgjsG1029"><svg viewBox="0 0 223.99999999999997 179.95704369538078" height="179.95704369538078" width="223.99999999999997" id="SvgjsSvg1028"><g><svg viewBox="0 0 223.99999999999997 179.95704369538078" height="179.95704369538078" width="223.99999999999997"><path d="M223.476 38.597C222.422 19.918 219.421 14.725 219.421 14.725 210.207-4.515 198.707-0.368 188.377 2.397 170.137 2.509 151.972 6.618 133.775 8.822 95.58 9.158 57.059 3.629 19.053 17.265 15.483 21.45-3.704 18.087 0.635 40.988 1.772 50.515 5.921 61.087 5.795 69.829 6.364 71.361 7.154 67.849 7.49 70.054 8.67 75.994 10.597 73.192 12.177 76.703 9.976 86.081 11.555 93.889 13.061 102.07 10.408 104.2 7.006 103.191 5.479 110.252 5.321 115.37 4.468 114.399 3.531 114.175 2.846 114.025 1.467 114.585 1.699 116.192 2.488 121.684-0.902 124.859 1.225 130.239-0.239 136.067 2.236 141.11 1.899 147.424 1.857 148.694 2.088 149.778 2.457 150.076 4.089 151.683 1.709 154.821 1.962 158.221 18.706 181.458 36.871 165.394 54.026 176.078 58.48 168.607 55.131 178.731 56.911 177.162 58.301 175.331 59.312 182.915 60.881 178.619 61.123 177.386 60.755 174.472 61.618 175.032 62.071 175.331 62.471 175.256 62.535 173.538 62.629 170.96 61.797 172.567 61.576 171.222 63.967 164.422 63.377 180.599 65.62 179.926 65.515 177.946 64.862 175.107 66.199 175.481 67.526 172.641 67.568 170.288 68.748 176.676 68.79 178.058 69 179.03 69.337 179.702 73.023 172.753 76.688 182.168 80.553 179.03 82.922 175.593 85.197 180.898 87.598 179.59 88.44 178.544 89.293 176.676 90.104 179.814 100.034 180.487 110.618 177.685 120.032 179.926 145.19 175.742 172.075 181.645 198.602 176.116 204.857 173.986 211.355 170.96 217.452 168.532 217.452 168.532 222.391 161.882 222.391 131.995S223.444 105.843 223.602 82.046C223.76 58.248 224.497 57.277 223.444 38.597Z" opacity="1" fill="white"></path><g transform="matrix(1,0,0,1,31.584000000000003,19.1)"><svg width="160.83199999999997" viewBox="2.8 -35.1 40.050000000000004 35.300000000000004" height="141.75704369538076" data-palette-color="#f9f9f9"></svg></g></svg></g></svg></g></svg></g><g></g></svg></g></svg></g></svg></g><defs><mask></mask></defs></svg></g></mask><linearGradient x1="0" x2="1" y1="0.5" y2="0.5" id="0029977a-d045-4f9b-9556-a2f3b4390586"><stop stop-color="#ffa62e" offset="0"></stop><stop stop-color="#f71b3d" offset="1"></stop></linearGradient></svg><rect width="320" height="360" fill="none" stroke="none" visibility="hidden"></rect></g></svg></g></svg>